<?xml version="1.0" standalone="no"?><svg xmlns="http://www.w3.org/2000/svg" viewBox="0 0 1440 320"><path fill="#F23064" fill-opacity="1" d="M0,96L34.3,117.3C68.6,139,137,181,206,181.3C274.3,181,343,139,411,154.7C480,171,549,245,617,277.3C685.7,309,754,299,823,288C891.4,277,960,267,1029,240C1097.1,213,1166,171,1234,138.7C1302.9,107,1371,85,1406,74.7L1440,64L1440,0L1405.7,0C1371.4,0,1303,0,1234,0C1165.7,0,1097,0,1029,0C960,0,891,0,823,0C754.3,0,686,0,617,0C548.6,0,480,0,411,0C342.9,0,274,0,206,0C137.1,0,69,0,34,0L0,0Z"></path></svg>