<?xml version="1.0" standalone="no"?><svg xmlns="http://www.w3.org/2000/svg" viewBox="0 0 1440 320"><path fill="#ffffff" fill-opacity="1" d="M0,192L26.7,165.3C53.3,139,107,85,160,96C213.3,107,267,181,320,181.3C373.3,181,427,107,480,64C533.3,21,587,11,640,48C693.3,85,747,171,800,202.7C853.3,235,907,213,960,186.7C1013.3,160,1067,128,1120,138.7C1173.3,149,1227,203,1280,197.3C1333.3,192,1387,128,1413,96L1440,64L1440,0L1413.3,0C1386.7,0,1333,0,1280,0C1226.7,0,1173,0,1120,0C1066.7,0,1013,0,960,0C906.7,0,853,0,800,0C746.7,0,693,0,640,0C586.7,0,533,0,480,0C426.7,0,373,0,320,0C266.7,0,213,0,160,0C106.7,0,53,0,27,0L0,0Z"></path></svg>