<?xml version="1.0" standalone="no"?><svg xmlns="http://www.w3.org/2000/svg" viewBox="0 0 1440 320"><path fill="#F23064" fill-opacity="1" d="M0,320L10.9,320C21.8,320,44,320,65,288C87.3,256,109,192,131,160C152.7,128,175,128,196,133.3C218.2,139,240,149,262,170.7C283.6,192,305,224,327,224C349.1,224,371,192,393,181.3C414.5,171,436,181,458,197.3C480,213,502,235,524,224C545.5,213,567,171,589,165.3C610.9,160,633,192,655,186.7C676.4,181,698,139,720,128C741.8,117,764,139,785,138.7C807.3,139,829,117,851,112C872.7,107,895,117,916,112C938.2,107,960,85,982,117.3C1003.6,149,1025,235,1047,256C1069.1,277,1091,235,1113,229.3C1134.5,224,1156,256,1178,245.3C1200,235,1222,181,1244,165.3C1265.5,149,1287,171,1309,192C1330.9,213,1353,235,1375,229.3C1396.4,224,1418,192,1429,176L1440,160L1440,0L1429.1,0C1418.2,0,1396,0,1375,0C1352.7,0,1331,0,1309,0C1287.3,0,1265,0,1244,0C1221.8,0,1200,0,1178,0C1156.4,0,1135,0,1113,0C1090.9,0,1069,0,1047,0C1025.5,0,1004,0,982,0C960,0,938,0,916,0C894.5,0,873,0,851,0C829.1,0,807,0,785,0C763.6,0,742,0,720,0C698.2,0,676,0,655,0C632.7,0,611,0,589,0C567.3,0,545,0,524,0C501.8,0,480,0,458,0C436.4,0,415,0,393,0C370.9,0,349,0,327,0C305.5,0,284,0,262,0C240,0,218,0,196,0C174.5,0,153,0,131,0C109.1,0,87,0,65,0C43.6,0,22,0,11,0L0,0Z"></path></svg>